<svg xmlns="http://www.w3.org/2000/svg" width="16.623" height="15" viewBox="0 0 16.623 15">
    <defs>
        <style>
            .cls-1{fill:#2c7df0}
        </style>
    </defs>
    <g id="calendar_1_" transform="translate(0 -25)">
        <path id="Path_182" d="M16.623 29.675V27.76a1.463 1.463 0 0 0-1.461-1.46h-.195v1.786a.487.487 0 1 1-.974 0v-2.6a.487.487 0 1 0-.974 0v.814H9.773v1.786a.487.487 0 1 1-.974 0v-2.6a.487.487 0 1 0-.974 0v.814H4.578v1.786a.487.487 0 1 1-.974 0v-2.6a.487.487 0 1 0-.974 0v.814H1.461A1.463 1.463 0 0 0 0 27.76v1.916z" class="cls-1"/>
        <path id="Path_183" d="M0 199v7.89a1.463 1.463 0 0 0 1.461 1.461h13.7a1.463 1.463 0 0 0 1.461-1.461V199zm4.675 6.753H3.636a.487.487 0 1 1 0-.974h1.039a.487.487 0 1 1 0 .974zm0-2.078H3.636a.487.487 0 0 1 0-.974h1.039a.487.487 0 0 1 0 .974zm0-2.078H3.636a.487.487 0 0 1 0-.974h1.039a.487.487 0 0 1 0 .974zm4.156 4.156H7.792a.487.487 0 1 1 0-.974h1.039a.487.487 0 1 1 0 .974zm0-2.078H7.792a.487.487 0 0 1 0-.974h1.039a.487.487 0 0 1 0 .974zm0-2.078H7.792a.487.487 0 0 1 0-.974h1.039a.487.487 0 0 1 0 .974zm4.156 4.156h-1.039a.487.487 0 1 1 0-.974h1.039a.487.487 0 1 1 0 .974zm0-2.078h-1.039a.487.487 0 0 1 0-.974h1.039a.487.487 0 0 1 0 .974zm0-2.078h-1.039a.487.487 0 0 1 0-.974h1.039a.487.487 0 0 1 0 .974z" class="cls-1" transform="translate(0 -168.351)"/>
    </g>
</svg>
