<svg xmlns="http://www.w3.org/2000/svg" id="dashboard" width="14" height="14" viewBox="0 0 14 14">
    <defs>
        <style>
            .cls-1{fill:#fff}
        </style>
    </defs>
    <path id="Path_125" d="M5.444 0H1.03A1.031 1.031 0 0 0 0 1.03v2.648a1.031 1.031 0 0 0 1.03 1.03h4.414a1.031 1.031 0 0 0 1.03-1.03V1.03A1.031 1.031 0 0 0 5.444 0zm0 0" class="cls-1"/>
    <path id="Path_126" d="M5.444 213.332H1.03a1.031 1.031 0 0 0-1.03 1.03v6.18a1.031 1.031 0 0 0 1.03 1.03h4.414a1.031 1.031 0 0 0 1.03-1.03v-6.18a1.031 1.031 0 0 0-1.03-1.03zm0 0" class="cls-1" transform="translate(0 -207.572)"/>
    <path id="Path_127" d="M282.776 341.332h-4.414a1.031 1.031 0 0 0-1.03 1.03v2.648a1.031 1.031 0 0 0 1.03 1.03h4.414a1.031 1.031 0 0 0 1.03-1.03v-2.648a1.031 1.031 0 0 0-1.03-1.03zm0 0" class="cls-1" transform="translate(-269.806 -332.04)"/>
    <path id="Path_128" d="M282.776 0h-4.414a1.031 1.031 0 0 0-1.03 1.03v6.18a1.031 1.031 0 0 0 1.03 1.03h4.414a1.031 1.031 0 0 0 1.03-1.03V1.03a1.031 1.031 0 0 0-1.03-1.03zm0 0" class="cls-1" transform="translate(-269.806)"/>
</svg>
