<svg xmlns="http://www.w3.org/2000/svg" width="17.445" height="14.901" viewBox="0 0 17.445 14.901">
    <g>
        <g>
            <path fill="#636c76" d="M16.938 46.379h-1.309v-6.36a.527.527 0 0 0-.508-.545h-2.763v-3.089a.527.527 0 0 0-.508-.545H5.271a.527.527 0 0 0-.545.508v3.126H2.363a.527.527 0 0 0-.545.508v6.397H.546a.527.527 0 0 0-.546.509V50.2a.527.527 0 0 0 .508.545H4.18a.527.527 0 0 0 .545-.508v-3.312a.527.527 0 0 0-.508-.545H2.908v-5.815h1.818v1.272a.527.527 0 0 0 .508.545h2.944v4H6.906a.527.527 0 0 0-.545.508v3.31a.527.527 0 0 0 .508.545h3.671a.527.527 0 0 0 .545-.508v-3.312a.527.527 0 0 0-.508-.545H9.269v-4h2.544a.527.527 0 0 0 .545-.508v-1.307h2.181v5.815h-1.273a.527.527 0 0 0-.545.508V50.2a.527.527 0 0 0 .508.545H16.9a.527.527 0 0 0 .545-.508v-3.312a.527.527 0 0 0-.507-.546z" transform="translate(-.001 -35.84) translate(.001 35.84) translate(-.001 -35.84)"/>
        </g>
    </g>
</svg>
