<svg xmlns="http://www.w3.org/2000/svg" width="17.642" height="17.033" viewBox="0 0 17.642 17.033">
    <path fill="#636c76" d="M14.388 18.031A18.1 18.1 0 0 0 6.847 20l-2.931 1.7a1.619 1.619 0 0 1-2.21-.593l-1.49-2.58a1.62 1.62 0 0 1 .593-2.21l2.429-1.4a.294.294 0 0 1 .4.108l1.908 3.305a.294.294 0 0 0 .409.1.3.3 0 0 0 .094-.408l-1.921-3.331a.294.294 0 0 1 .087-.388 18.1 18.1 0 0 0 5-5.225 1.231 1.231 0 0 1 2.107.041l4.08 7.067a1.231 1.231 0 0 1-1.014 1.845zm.523-4.922a1.84 1.84 0 0 0-1.175-2.028.294.294 0 0 0-.354.424l.983 1.7a.294.294 0 0 0 .546-.096zm-6.788 10.4l-1.4-2.422a.294.294 0 0 0-.4-.108l-1.79 1.04a.294.294 0 0 0-.108.4l1.4 2.421a.955.955 0 0 0 .83.479c.318 0 .44-.108 1.121-.5a.957.957 0 0 0 .348-1.305zm8.935-12.64a.294.294 0 1 0-.294-.509L16 10.8a.294.294 0 0 0 .147.549c.108.003.088 0 .911-.476zm-2.7-1.524l.186-.692a.294.294 0 1 0-.568-.152l-.186.692a.294.294 0 1 0 .568.152zm3.278 4.664a.294.294 0 0 0-.208-.36l-.692-.186a.294.294 0 1 0-.152.568 4.767 4.767 0 0 0 .769.2.294.294 0 0 0 .284-.218z" transform="translate(0 -8.287)"/>
</svg>
