<svg xmlns="http://www.w3.org/2000/svg" width="16.642" height="15" viewBox="0 0 16.642 15">
    <g>
        <g>
            <path fill="#636c76" d="M14.414 31.64h-1.035v-8.276a2.224 2.224 0 0 0-2.228-2.228H2.12a.252.252 0 0 0-.119.02 2.241 2.241 0 0 0 0 4.456c.04 0 .08.02.119.02h.119v8.3a2.246 2.246 0 0 0 2.228 2.208h9.947a2.248 2.248 0 0 0 0-4.5zM2.239 24.418V24.4a1.034 1.034 0 0 1 0-2.069h6.943a2.277 2.277 0 0 0 0 2.089zm9.549 8.137H3.631v-1.194h8.156zm0-2.387H3.631v-1.194h8.156zm0-2.387H3.631v-1.194h8.156zm2.646 7.119a1.027 1.027 0 0 1-1.034-1.032v-1.034h1.034a1.034 1.034 0 0 1 0 2.069z" transform="translate(0 -21.136) translate(0 21.136) translate(0 -21.136)"/>
        </g>
    </g>
</svg>
