<svg xmlns="http://www.w3.org/2000/svg" width="17.445" height="13.092" viewBox="0 0 17.445 13.092">
    <defs>
        <style>
            .cls-1{fill:#636c76}
        </style>
    </defs>
    <g id="speed" transform="translate(0 -63.884)">
        <path id="Path_129" d="M209.72 233.958a1.57 1.57 0 1 0 3.14 0 32.527 32.527 0 0 0-1.57-4.879 32.527 32.527 0 0 0-1.57 4.879z" class="cls-1" transform="rotate(45 303.116 -90.802)"/>
        <path id="Path_130" d="M271.02 63.884v2.46a6.244 6.244 0 0 1 2.177.582l1.23-2.131a8.686 8.686 0 0 0-3.407-.911z" class="cls-1" transform="translate(-261.786)"/>
        <path id="Path_131" d="M423.3 208.272h2.46a8.687 8.687 0 0 0-.911-3.407l-2.131 1.23a6.244 6.244 0 0 1 .582 2.177z" class="cls-1" transform="translate(-408.311 -136.177)"/>
        <path id="Path_132" d="M144.394 63.884a8.687 8.687 0 0 0-3.407.911l1.23 2.131a6.244 6.244 0 0 1 2.177-.582z" class="cls-1" transform="translate(-136.183)"/>
        <path id="Path_133" d="M3.05 206.1l-2.131-1.23a8.686 8.686 0 0 0-.911 3.407h2.46a6.244 6.244 0 0 1 .582-2.177z" class="cls-1" transform="translate(-.008 -136.177)"/>
        <path id="Path_134" d="M416.548 334.9a6.246 6.246 0 0 1-.82 2.63l2.126 1.227a8.686 8.686 0 0 0 1.155-3.858z" class="cls-1" transform="translate(-401.563 -261.779)"/>
        <path id="Path_135" d="M362.14 105.675l-1.23 2.131a6.317 6.317 0 0 1 1.59 1.594l2.131-1.23a8.785 8.785 0 0 0-2.491-2.495z" class="cls-1" transform="translate(-348.613 -40.367)"/>
        <path id="Path_136" d="M0 334.9a8.687 8.687 0 0 0 1.155 3.858l2.126-1.227a6.245 6.245 0 0 1-.82-2.63z" class="cls-1" transform="translate(0 -261.779)"/>
        <path id="Path_137" d="M41.8 108.168l2.131 1.23a6.318 6.318 0 0 1 1.593-1.593l-1.23-2.131a8.785 8.785 0 0 0-2.494 2.494z" class="cls-1" transform="translate(-40.374 -40.366)"/>
    </g>
</svg>
