<svg xmlns="http://www.w3.org/2000/svg" width="12.312" height="15.826" viewBox="0 0 12.312 15.826">
    <defs>
        <style>
            .cls-1{fill:#2c435a}
        </style>
    </defs>
    <g id="trash">
        <path id="Path_173" d="M126.42.955h2.645V1.4h.955V.893a.894.894 0 0 0-.892-.893h-2.77a.894.894 0 0 0-.893.893V1.4h.955zm0 0" class="cls-1" transform="translate(-121.586)"/>
        <path id="Path_174" d="M49.878 167.75h-8.967a.421.421 0 0 0-.419.455l.75 9.27a1 1 0 0 0 .992.916h6.322a1 1 0 0 0 .992-.916l.75-9.27a.42.42 0 0 0-.42-.455zm-6.8 9.652h-.03a.478.478 0 0 1-.476-.448l-.47-7.61a.478.478 0 0 1 .953-.059l.47 7.61a.478.478 0 0 1-.443.505zm2.8-.477a.478.478 0 0 1-.955 0v-7.61a.478.478 0 1 1 .955 0zm2.805-7.582l-.449 7.61a.478.478 0 0 1-.476.45h-.028a.478.478 0 0 1-.449-.5l.448-7.61a.478.478 0 0 1 .954.056zm0 0" class="cls-1" transform="translate(-39.238 -162.565)"/>
        <path id="Path_175" d="M12.292 77.566l-.314-.94a.607.607 0 0 0-.576-.415H.911a.607.607 0 0 0-.576.415l-.314.94a.395.395 0 0 0 .374.519h11.523a.389.389 0 0 0 .209-.06.393.393 0 0 0 .165-.459zm0 0" class="cls-1" transform="translate(0 -73.855)"/>
    </g>
</svg>
